<?xml version="1.0" encoding="utf-8"?>
<!-- Generator: Adobe Illustrator 22.0.0, SVG Export Plug-In . SVG Version: 6.00 Build 0)  -->
<svg version="1.1" id="dca5ddf2-70ca-41fa-ba3d-780dcc33df7b"
	 xmlns="http://www.w3.org/2000/svg" xmlns:xlink="http://www.w3.org/1999/xlink" x="0px" y="0px" viewBox="0 0 450.7 450"
	 style="enable-background:new 0 0 450.7 450;" xml:space="preserve">
<style type="text/css">
	.st0{fill:#FBF8E1;}
</style>
<title>clothes-hanger</title>
<path class="st0" d="M-226,258.7c-45.5,21.8-82.2,58.9-100.3,79.1c-6.8,7.9-20.3,14.6-30.4,14.6h-9.4c0.8,1,1.2,2.2,1.1,3.4
	l-0.4,21.4c17.6,9.8,22.9,26.3,19.9,39c-3.8,15.8-17.6,26.3-35.3,26.3c-10.5,0-19.1-3-25.2-9.4c-9.8-9.8-9.8-23.3-9.8-24
	c0.1-3.4,3-6.1,6.4-6c3.5,0.1,6.3,2.9,6.4,6.4c0,3.4,1.1,20.6,22.5,20.6c11.3,0,20.3-6.4,22.5-16.1c1.9-8.2-1.5-20.2-16.5-27
	c-2.3-1.1-3.7-3.4-3.8-6l0.4-25.5c0-1.1,0.4-2.2,1.1-3h-17.7c-10.5,0-24-6.8-30.8-14.6c-18-20.3-54.4-57.4-100.3-79.1
	c-52.9-24.8-70.2-24.8-76.2-46.5c-2.6-10.1,5.3-15.4,15-11.3c32.7,14.3,107,49.5,180.6,103.1c0,0,13.9,12,29.3,12h2.3
	c15,0,29.3-12,29.3-12c73.6-53.6,147.9-88.9,180.6-103.1c9.4-4.1,17.6,1.5,15,11.3C-155.5,234-173.1,234-226,258.7L-226,258.7z"/>
<path class="st0" d="M-473.7,96.9c0-35.5,9.6-64.2,21.5-64.2c11.9,0,21.5,28.8,21.5,64.2s-9.6,64.2-21.5,64.2
	C-464.1,161.2-473.7,132.4-473.7,96.9L-473.7,96.9z"/>
<path class="st0" d="M-326,140.6h79.8c10.5,0,18.9,4.6,18.9,10.3c0,5.7-8.5,10.3-18.9,10.3H-326c-10.5,0-18.9-4.6-18.9-10.3
	S-336.5,140.6-326,140.6z"/>
<path class="st0" d="M-237.6-127.1c-36.2,17.3-65.4,46.8-79.8,62.9c-5.4,6.3-16.1,11.6-24.2,11.6h-7.5c0.6,0.8,1,1.7,0.9,2.7
	l-0.3,17c14,7.8,18.2,20.9,15.8,31c-3,12.6-14,20.9-28.1,20.9c-8.3,0-15.2-2.4-20-7.5c-7.8-7.8-7.8-18.5-7.8-19.1
	c0.1-2.7,2.4-4.9,5.1-4.8c2.8,0.1,5,2.3,5.1,5.1c0,2.7,0.9,16.4,17.9,16.4c9,0,16.1-5.1,17.9-12.8c1.5-6.5-1.2-16.1-13.1-21.5
	c-1.8-0.9-2.9-2.7-3-4.8l0.3-20.3c0-0.9,0.3-1.7,0.9-2.4h-14.1c-8.3,0-19.1-5.4-24.5-11.6c-14.3-16.1-43.3-45.6-79.8-62.9
	c-42.1-19.7-55.8-19.7-60.6-37c-2.1-8,4.2-12.2,11.9-9c26,11.4,85.1,39.4,143.6,82c0,0,11.1,9.5,23.3,9.5h1.8
	c11.9,0,23.3-9.5,23.3-9.5c58.5-42.6,117.6-70.7,143.6-82c7.5-3.3,14,1.2,11.9,9C-181.6-146.7-195.5-146.7-237.6-127.1L-237.6-127.1
	z"/>
<path class="st0" d="M-232.6-223.6h-93.7c-6.6,0-12-5.4-12-12v-3c0-6.6,5.4-12,12-12h93.7c6.6,0,12,5.4,12,12v3
	C-220.6-229-225.9-223.6-232.6-223.6z"/>
<path class="st0" d="M-401.9-328.6v93c0,6.6-5.4,12-12,12h-3c-6.6,0-12-5.4-12-12v-93c0-6.6,5.4-12,12-12h3
	C-407.3-340.6-401.9-335.2-401.9-328.6z"/>
<path class="st0" d="M-239.6-606.1c-36.2,17.3-65.4,46.8-79.8,62.9c-5.4,6.3-16.1,11.6-24.2,11.6h-7.5c0.6,0.8,1,1.7,0.9,2.7
	l-0.3,17c14,7.8,18.2,20.9,15.8,31c-3,12.6-14,20.9-28.1,20.9c-8.3,0-15.2-2.4-20-7.5c-7.8-7.8-7.8-18.5-7.8-19.1
	c0.1-2.7,2.4-4.9,5.1-4.8c2.8,0.1,5,2.3,5.1,5.1c0,2.7,0.9,16.4,17.9,16.4c9,0,16.1-5.1,17.9-12.8c1.5-6.5-1.2-16.1-13.1-21.5
	c-1.8-0.9-2.9-2.7-3-4.8l0.3-20.3c0-0.9,0.3-1.7,0.9-2.4h-14.1c-8.3,0-19.1-5.4-24.5-11.6c-14.3-16.1-43.3-45.6-79.8-62.9
	c-42.1-19.7-55.8-19.7-60.6-37c-2.1-8,4.2-12.2,11.9-9c26,11.4,85.1,39.4,143.6,82c0,0,11.1,9.5,23.3,9.5h1.8
	c11.9,0,23.3-9.5,23.3-9.5c58.5-42.6,117.6-70.7,143.6-82c7.5-3.3,14,1.2,11.9,9C-183.6-625.7-197.5-625.7-239.6-606.1L-239.6-606.1
	z"/>
<path class="st0" d="M-403.9-773.5v98.9c0,5-4.1,9.1-9.1,9.1h0c-5,0-9.1-4.1-9.1-9.1v-98.9c0-5,4.1-9.1,9.1-9.1h0
	C-408-782.6-403.9-778.5-403.9-773.5z"/>
<path class="st0" d="M-233-702.5h-99c-5,0-9-4-9-9v0c0-4.9,4-9,9-9h99c4.9,0,9,4.1,9,9v0C-224-706.5-228.1-702.5-233-702.5z"/>
<path class="st0" d="M-158.9,854.5h-435.3c-4,0-7.3-3.3-7.3-7.3v-20.8c0-4,3.3-7.4,7.3-7.4h435.3c4,0,7.4,3.3,7.4,7.4v20.8
	C-151.5,851.2-154.8,854.5-158.9,854.5z"/>
<path class="st0" d="M-320.8,882h-129.8c-4,0-7.4,3.3-7.4,7.3v20.8c0,4,3.3,7.3,7.4,7.3h62.9c-0.8,0.9-1.2,2.1-1.2,3.3l-0.4,28
	c0.1,2.9,1.6,5.4,4.2,6.6c16.5,7.5,20.2,20.7,18.1,29.7c-2.4,10.7-12.3,17.7-24.8,17.7c-23.5,0-24.8-18.9-24.8-22.7
	c-0.1-3.9-3.2-6.9-7-7c-3.7-0.1-6.9,2.9-7,6.6c0,0.8,0,15.6,10.8,26.4c6.7,7,16.2,10.3,27.7,10.3c19.5,0,34.6-11.5,38.8-28.9
	c3.3-14-2.5-32.1-21.9-42.9l0.4-23.5c0.1-1.3-0.3-2.6-1.1-3.6h55.1c4,0,7.3-3.3,7.3-7.3v-20.8C-313.5,885.3-316.8,882-320.8,882z"/>
<path class="st0" d="M-473.7,675.9c0-35.5,9.6-64.2,21.5-64.2c11.9,0,21.5,28.8,21.5,64.2c0,35.4-9.6,64.2-21.5,64.2
	C-464.1,740.2-473.7,711.4-473.7,675.9L-473.7,675.9z"/>
<path class="st0" d="M-340,719.6h79.8c10.5,0,18.9,4.6,18.9,10.3c0,5.7-8.5,10.3-18.9,10.3H-340c-10.5,0-18.9-4.6-18.9-10.3
	S-350.5,719.6-340,719.6z"/>
</svg>
